<svg width="152" height="23" viewBox="0 0 152 23" fill="none" xmlns="http://www.w3.org/2000/svg">
<path d="M2.92969 22H0.841619L8.77841 0.181818H10.9091L18.8459 22H16.7578L9.91832 2.7706H9.76918L2.92969 22ZM4.43182 13.6371H15.2557V15.4268H4.43182V13.6371ZM24.5774 0.181818V22H22.5852V0.181818H24.5774ZM38.8157 22V0.181818H51.44V1.97159H40.8079V10.1854H50.4492V11.9751H40.8079V22H38.8157ZM70.9357 0.181818H72.9279V14.6278C72.9279 16.1122 72.5799 17.4403 71.8839 18.6122C71.1879 19.777 70.2184 20.6967 68.9755 21.3714C67.7397 22.0391 66.3015 22.3729 64.6609 22.3729C63.0273 22.3729 61.5891 22.0355 60.3462 21.3608C59.1033 20.6861 58.1339 19.7663 57.4379 18.6016C56.7418 17.4368 56.3938 16.1122 56.3938 14.6278V0.181818H58.386V14.4893C58.386 15.647 58.6452 16.6804 59.1637 17.5895C59.6822 18.4915 60.4102 19.2017 61.3477 19.7202C62.2923 20.2386 63.3967 20.4979 64.6609 20.4979C65.9251 20.4979 67.0295 20.2386 67.9741 19.7202C68.9187 19.2017 69.6467 18.4915 70.158 17.5895C70.6765 16.6804 70.9357 15.647 70.9357 14.4893V0.181818ZM77.397 1.97159V0.181818H93.2173V1.97159H86.3033V22H84.3111V1.97159H77.397ZM112.244 0.181818H114.237V14.6278C114.237 16.1122 113.888 17.4403 113.192 18.6122C112.496 19.777 111.527 20.6967 110.284 21.3714C109.048 22.0391 107.61 22.3729 105.969 22.3729C104.336 22.3729 102.898 22.0355 101.655 21.3608C100.412 20.6861 99.4425 19.7663 98.7464 18.6016C98.0504 17.4368 97.7024 16.1122 97.7024 14.6278V0.181818H99.6946V14.4893C99.6946 15.647 99.9538 16.6804 100.472 17.5895C100.991 18.4915 101.719 19.2017 102.656 19.7202C103.601 20.2386 104.705 20.4979 105.969 20.4979C107.234 20.4979 108.338 20.2386 109.283 19.7202C110.227 19.2017 110.955 18.4915 111.467 17.5895C111.985 16.6804 112.244 15.647 112.244 14.4893V0.181818ZM120.027 22V0.181818H127.069C128.617 0.181818 129.909 0.462358 130.946 1.02344C131.99 1.57741 132.775 2.34801 133.301 3.33523C133.833 4.31534 134.1 5.44105 134.1 6.71236C134.1 7.98366 133.833 9.10582 133.301 10.0788C132.775 11.0518 131.994 11.8118 130.957 12.3587C129.92 12.9055 128.635 13.179 127.1 13.179H121.103V11.3572H127.047C128.184 11.3572 129.128 11.169 129.881 10.7926C130.641 10.4162 131.206 9.87997 131.575 9.18395C131.951 8.48793 132.14 7.66406 132.14 6.71236C132.14 5.76065 131.951 4.92969 131.575 4.21946C131.199 3.50213 130.63 2.94815 129.87 2.55753C129.118 2.1669 128.166 1.97159 127.015 1.97159H122.019V22H120.027ZM129.647 12.1562L135.016 22H132.715L127.399 12.1562H129.647ZM138.952 22V0.181818H151.609V1.97159H140.945V10.1854H150.938V11.9751H140.945V20.2102H151.822V22H138.952Z" fill="white"/>
</svg>
